<svg width="20" height="16" viewBox="0 0 20 16" fill="none" xmlns="http://www.w3.org/2000/svg">
<path fill-rule="evenodd" clip-rule="evenodd" d="M0.250319 7.99996C0.250319 8.29833 0.375429 8.58447 0.598129 8.79545C0.820827 9.00643 1.12288 9.12496 1.43782 9.12496H15.1962L10.0971 13.9535C9.98666 14.0581 9.89908 14.1822 9.83933 14.3189C9.77957 14.4556 9.74882 14.602 9.74882 14.75C9.74882 14.8979 9.77957 15.0444 9.83933 15.181C9.89908 15.3177 9.98666 15.4419 10.0971 15.5465C10.2075 15.6511 10.3386 15.734 10.4828 15.7906C10.6271 15.8472 10.7817 15.8764 10.9378 15.8764C11.094 15.8764 11.2486 15.8472 11.3928 15.7906C11.5371 15.734 11.6682 15.6511 11.7786 15.5465L18.9036 8.79646C19.0142 8.69195 19.1019 8.56781 19.1618 8.43113C19.2216 8.29446 19.2524 8.14793 19.2524 7.99996C19.2524 7.85198 19.2216 7.70546 19.1618 7.56878C19.1019 7.43211 19.0142 7.30796 18.9036 7.20346L11.7786 0.453457C11.5556 0.242212 11.2532 0.123535 10.9378 0.123535C10.6225 0.123535 10.32 0.242212 10.0971 0.453457C9.87409 0.664702 9.74882 0.951211 9.74882 1.24996C9.74882 1.5487 9.87409 1.83521 10.0971 2.04646L15.1962 6.87496H1.43782C1.12288 6.87496 0.820827 6.99348 0.598129 7.20446C0.375429 7.41544 0.250319 7.70159 0.250319 7.99996Z" fill="white"/>
</svg>
