<svg width="20" height="16" viewBox="0 0 20 16" fill="none" xmlns="http://www.w3.org/2000/svg">
<path fill-rule="evenodd" clip-rule="evenodd" d="M19.2497 7.99996C19.2497 8.29833 19.1246 8.58447 18.9019 8.79545C18.6792 9.00643 18.3771 9.12496 18.0622 9.12496H4.30381L9.40293 13.9535C9.51334 14.0581 9.60092 14.1822 9.66068 14.3189C9.72043 14.4556 9.75118 14.602 9.75118 14.75C9.75118 14.8979 9.72043 15.0444 9.66068 15.181C9.60092 15.3177 9.51334 15.4419 9.40293 15.5465C9.29252 15.6511 9.16145 15.734 9.01719 15.7906C8.87294 15.8472 8.71832 15.8764 8.56218 15.8764C8.40604 15.8764 8.25143 15.8472 8.10717 15.7906C7.96291 15.734 7.83184 15.6511 7.72143 15.5465L0.596431 8.79646C0.485844 8.69195 0.398104 8.56781 0.338239 8.43113C0.278373 8.29445 0.247559 8.14793 0.247559 7.99996C0.247559 7.85198 0.278373 7.70546 0.338239 7.56878C0.398104 7.4321 0.485844 7.30796 0.596431 7.20346L7.72143 0.453457C7.94441 0.242212 8.24684 0.123535 8.56218 0.123535C8.87752 0.123535 9.17995 0.242212 9.40293 0.453457C9.62591 0.664701 9.75118 0.951211 9.75118 1.24996C9.75118 1.5487 9.62591 1.83521 9.40293 2.04646L4.30381 6.87496H18.0622C18.3771 6.87496 18.6792 6.99348 18.9019 7.20446C19.1246 7.41544 19.2497 7.70159 19.2497 7.99996Z" fill="black" fill-opacity="0.3"/>
</svg>
